<svg
            width="45"
            height="46"
            viewBox="0 0 45 46"
            fill="none"
            xmlns="http://www.w3.org/2000/svg"
          >
            <g filter="url(#filter0_i_14_9915)">
              <rect y="0.5" width="45" height="45" rx="22.5" fill="#F5F5F5" />
              <rect
                x="1.5"
                y="2"
                width="42"
                height="42"
                rx="21"
                stroke="url(#paint0_linear_14_9915)"
                stroke-opacity="0.03"
                stroke-width="3"
              />
              <g clip-path="url(#clip0_14_9915)">
                <path
                  d="M32.6344 19.2523C32.6382 19.3139 32.6327 19.3757 32.6181 19.4356L31.2611 24.8636C31.2278 24.9965 31.1513 25.1146 31.0435 25.1992C30.9357 25.2838 30.8028 25.3301 30.6658 25.3309L22.5238 25.372H14.3785C14.2409 25.372 14.1072 25.3259 13.9987 25.2411C13.8903 25.1564 13.8133 25.0378 13.78 24.9042L12.423 19.4556C12.408 19.394 12.4025 19.3305 12.4068 19.2673C11.8819 19.1019 11.5 18.6107 11.5 18.0318C11.5 17.3175 12.081 16.7365 12.7953 16.7365C13.5096 16.7365 14.0907 17.3175 14.0907 18.0318C14.0907 18.434 13.9063 18.7939 13.6178 19.0317L15.3167 20.7435C15.7461 21.1762 16.342 21.4242 16.9516 21.4242C17.6723 21.4242 18.3596 21.0819 18.7923 20.5085L21.5845 16.8088C21.464 16.6888 21.3684 16.5461 21.3032 16.3891C21.238 16.232 21.2045 16.0635 21.2047 15.8935C21.2047 15.1792 21.7857 14.5981 22.5 14.5981C23.2143 14.5981 23.7953 15.1792 23.7953 15.8935C23.7953 16.2399 23.6578 16.5543 23.4355 16.787C23.4363 16.7879 23.4372 16.7888 23.4379 16.7898L26.2098 20.4997C26.6424 21.0786 27.3321 21.4243 28.0549 21.4243C28.6701 21.4243 29.2486 21.1847 29.6836 20.7497L31.3933 19.04C31.0986 18.8023 30.9093 18.439 30.9093 18.0318C30.9093 17.3175 31.4904 16.7365 32.2047 16.7365C32.919 16.7365 33.5 17.3175 33.5 18.0318C33.5 18.5952 33.1377 19.0745 32.6344 19.2523ZM31.1287 27.3047C31.1287 27.1411 31.0637 26.9842 30.948 26.8685C30.8323 26.7529 30.6755 26.6879 30.5119 26.6879H14.5567C14.3931 26.6879 14.2362 26.7529 14.1206 26.8685C14.0049 26.9842 13.9399 27.1411 13.9399 27.3047V28.7851C13.9399 28.9487 14.0049 29.1055 14.1206 29.2212C14.2362 29.3369 14.3931 29.4019 14.5567 29.4019H30.5119C30.6755 29.4019 30.8323 29.3369 30.948 29.2212C31.0637 29.1055 31.1287 28.9487 31.1287 28.7851V27.3047Z"
                  fill="black"
                />
              </g>
            </g>
            <defs>
              <filter
                id="filter0_i_14_9915"
                x="0"
                y="0.5"
                width="45"
                height="67"
                filterUnits="userSpaceOnUse"
                color-interpolation-filters="sRGB"
              >
                <feFlood flood-opacity="0" result="BackgroundImageFix" />
                <feBlend
                  mode="normal"
                  in="SourceGraphic"
                  in2="BackgroundImageFix"
                  result="shape"
                />
                <feColorMatrix
                  in="SourceAlpha"
                  type="matrix"
                  values="0 0 0 0 0 0 0 0 0 0 0 0 0 0 0 0 0 0 127 0"
                  result="hardAlpha"
                />
                <feMorphology
                  radius="10"
                  operator="dilate"
                  in="SourceAlpha"
                  result="effect1_innerShadow_14_9915"
                />
                <feOffset dy="24" />
                <feGaussianBlur stdDeviation="16" />
                <feComposite
                  in2="hardAlpha"
                  operator="arithmetic"
                  k2="-1"
                  k3="1"
                />
                <feColorMatrix
                  type="matrix"
                  values="0 0 0 0 1 0 0 0 0 1 0 0 0 0 1 0 0 0 0.55 0"
                />
                <feBlend
                  mode="normal"
                  in2="shape"
                  result="effect1_innerShadow_14_9915"
                />
              </filter>
              <linearGradient
                id="paint0_linear_14_9915"
                x1="22.5"
                y1="0.5"
                x2="22.5"
                y2="45.5"
                gradientUnits="userSpaceOnUse"
              >
                <stop stop-opacity="0.1" />
                <stop offset="1" />
              </linearGradient>
              <clipPath id="clip0_14_9915">
                <rect
                  width="22"
                  height="22"
                  fill="white"
                  transform="translate(11.5 11)"
                />
              </clipPath>
            </defs>
          </svg>