<svg width="18" height="18" viewBox="0 0 18 18" fill="none" xmlns="http://www.w3.org/2000/svg">
<g clip-path="url(#clip0_2013_9896)">
<path d="M14.8799 6.78717H13.8478V5.41095C13.8478 2.75499 11.6871 0.594238 9.03106 0.594238C6.37507 0.594238 4.21435 2.75499 4.21435 5.41095V6.78717H3.1822C3.13701 6.78714 3.09225 6.79602 3.05049 6.8133C3.00874 6.83058 2.9708 6.85592 2.93884 6.88787C2.90689 6.91983 2.88154 6.95777 2.86426 6.99953C2.84698 7.04128 2.83811 7.08604 2.83813 7.13123V15.7325C2.83813 16.4915 3.45533 17.1087 4.21435 17.1087H13.8478C14.6068 17.1087 15.224 16.4915 15.224 15.7325V7.13123C15.224 7.08604 15.2151 7.04128 15.1979 6.99953C15.1806 6.95777 15.1552 6.91983 15.1233 6.88787C15.0913 6.85592 15.0534 6.83058 15.0116 6.8133C14.9699 6.79602 14.9251 6.78714 14.8799 6.78717ZM10.0612 13.9743C10.0665 14.0224 10.0617 14.0711 10.0469 14.1171C10.0321 14.1632 10.0078 14.2057 9.97556 14.2417C9.94328 14.2778 9.90377 14.3066 9.85959 14.3264C9.81542 14.3461 9.76757 14.3563 9.71919 14.3563H8.34297C8.29458 14.3563 8.24674 14.3461 8.20257 14.3264C8.15839 14.3066 8.11888 14.2778 8.0866 14.2417C8.05432 14.2057 8.03001 14.1632 8.01525 14.1171C8.00049 14.0711 7.99562 14.0224 8.00094 13.9743L8.21798 12.0225C7.86553 11.7662 7.65488 11.3606 7.65488 10.9158C7.65488 10.1568 8.27207 9.53957 9.03109 9.53957C9.79012 9.53957 10.4073 10.1568 10.4073 10.9158C10.4073 11.3606 10.1967 11.7662 9.84421 12.0225L10.0612 13.9743ZM11.7835 6.78717H6.27866V5.41095C6.27866 3.89329 7.51341 2.65855 9.03106 2.65855C10.5487 2.65855 11.7835 3.89329 11.7835 5.41095V6.78717Z" fill="black"/>
</g>
<defs>
<clipPath id="clip0_2013_9896">
<rect width="16.5145" height="16.5145" fill="white" transform="translate(0.773926 0.594238)"/>
</clipPath>
</defs>
</svg>
