<svg
            width="132"
            height="26"
            viewBox="0 0 132 26"
            fill="none"
            xmlns="http://www.w3.org/2000/svg"
          >
            <path
              d="M0.26 26V0.615998H17.474V8.596H10.14V10.002H16.106V16.842H10.14V26H0.26ZM19.0091 26V0.615998H28.8891V26H19.0091ZM30.7817 26V0.615998H40.6617V18.248H47.4257V26H30.7817ZM48.9371 26V0.615998H58.8171V18.248H65.5811V26H48.9371ZM72.5936 26L77.3436 0.615998H90.3776L95.1656 26H84.7536L84.6776 20.11H83.1576L83.0816 26H72.5936ZM83.3476 8.178L83.2716 13.46H84.5636L84.4876 8.178H83.3476ZM96.4772 26V0.615998H106.357V18.248H113.121V26H96.4772ZM114.633 26V0.615998H124.513V18.248H131.277V26H114.633Z"
              fill="black"
            />
          </svg>