<svg
          width="80"
          height="80"
          viewBox="0 0 80 80"
          fill="none"
          xmlns="http://www.w3.org/2000/svg"
        >
          <rect width="80" height="80" rx="40" fill="#9DF329" />
          <g clip-path="url(#clip0_14_38854)">
            <path
              d="M40 21C29.5239 21 21 29.5239 21 40C21 50.4761 29.5239 59 40 59C50.4761 59 59 50.4761 59 40C59 29.5239 50.4761 21 40 21ZM30.5 35.25C30.5 33.9414 31.5664 32.875 32.875 32.875C34.1836 32.875 35.25 33.9414 35.25 35.25C35.25 36.5586 34.1836 37.625 32.875 37.625C31.5664 37.625 30.5 36.5586 30.5 35.25ZM48.3956 49.9085C48.1629 50.1413 47.8589 50.2552 47.5549 50.2552C47.2509 50.2552 46.9469 50.1389 46.7141 49.9085C43.1231 46.3175 36.8674 46.3175 33.2788 49.9085C32.8156 50.3716 32.0627 50.3716 31.5996 49.9085C31.1365 49.4454 31.1365 48.6925 31.5996 48.2294C33.8464 45.9874 36.827 44.75 40 44.75C43.173 44.75 46.1536 45.9874 48.3956 48.2294C48.8587 48.6925 48.8587 49.4454 48.3956 49.9085ZM47.125 37.625C45.8164 37.625 44.75 36.5586 44.75 35.25C44.75 33.9414 45.8164 32.875 47.125 32.875C48.4336 32.875 49.5 33.9414 49.5 35.25C49.5 36.5586 48.4336 37.625 47.125 37.625Z"
              fill="black"
            />
          </g>
          <defs>
            <clipPath id="clip0_14_38854">
              <rect
                width="38"
                height="38"
                fill="white"
                transform="translate(21 21)"
              />
            </clipPath>
          </defs>
        </svg>