<svg
            width="45"
            height="46"
            viewBox="0 0 45 46"
            fill="none"
            xmlns="http://www.w3.org/2000/svg"
          >
            <g filter="url(#filter0_i_14_9931)">
              <rect y="0.5" width="45" height="45" rx="22.5" fill="#F5F5F5" />
              <rect
                x="1.5"
                y="2"
                width="42"
                height="42"
                rx="21"
                stroke="url(#paint0_linear_14_9931)"
                stroke-opacity="0.03"
                stroke-width="3"
              />
              <path
                d="M13.7917 17.4583C13.7917 17.0384 13.9585 16.6357 14.2554 16.3387C14.5524 16.0418 14.9551 15.875 15.375 15.875H29.625C30.0449 15.875 30.4477 16.0418 30.7446 16.3387C31.0415 16.6357 31.2084 17.0384 31.2084 17.4583C31.2084 17.8783 31.0415 18.281 30.7446 18.5779C30.4477 18.8749 30.0449 19.0417 29.625 19.0417H15.375C14.9551 19.0417 14.5524 18.8749 14.2554 18.5779C13.9585 18.281 13.7917 17.8783 13.7917 17.4583ZM13.7917 23C13.7917 22.5801 13.9585 22.1773 14.2554 21.8804C14.5524 21.5835 14.9551 21.4167 15.375 21.4167H29.625C30.0449 21.4167 30.4477 21.5835 30.7446 21.8804C31.0415 22.1773 31.2084 22.5801 31.2084 23C31.2084 23.4199 31.0415 23.8227 30.7446 24.1196C30.4477 24.4165 30.0449 24.5833 29.625 24.5833H15.375C14.9551 24.5833 14.5524 24.4165 14.2554 24.1196C13.9585 23.8227 13.7917 23.4199 13.7917 23ZM15.375 26.9583C14.9551 26.9583 14.5524 27.1251 14.2554 27.4221C13.9585 27.719 13.7917 28.1217 13.7917 28.5417C13.7917 28.9616 13.9585 29.3643 14.2554 29.6613C14.5524 29.9582 14.9551 30.125 15.375 30.125H29.625C30.0449 30.125 30.4477 29.9582 30.7446 29.6613C31.0415 29.3643 31.2084 28.9616 31.2084 28.5417C31.2084 28.1217 31.0415 27.719 30.7446 27.4221C30.4477 27.1251 30.0449 26.9583 29.625 26.9583H15.375Z"
                fill="black"
              />
            </g>
            <defs>
              <filter
                id="filter0_i_14_9931"
                x="0"
                y="0.5"
                width="45"
                height="67"
                filterUnits="userSpaceOnUse"
                color-interpolation-filters="sRGB"
              >
                <feFlood flood-opacity="0" result="BackgroundImageFix" />
                <feBlend
                  mode="normal"
                  in="SourceGraphic"
                  in2="BackgroundImageFix"
                  result="shape"
                />
                <feColorMatrix
                  in="SourceAlpha"
                  type="matrix"
                  values="0 0 0 0 0 0 0 0 0 0 0 0 0 0 0 0 0 0 127 0"
                  result="hardAlpha"
                />
                <feMorphology
                  radius="10"
                  operator="dilate"
                  in="SourceAlpha"
                  result="effect1_innerShadow_14_9931"
                />
                <feOffset dy="24" />
                <feGaussianBlur stdDeviation="16" />
                <feComposite
                  in2="hardAlpha"
                  operator="arithmetic"
                  k2="-1"
                  k3="1"
                />
                <feColorMatrix
                  type="matrix"
                  values="0 0 0 0 1 0 0 0 0 1 0 0 0 0 1 0 0 0 0.55 0"
                />
                <feBlend
                  mode="normal"
                  in2="shape"
                  result="effect1_innerShadow_14_9931"
                />
              </filter>
              <linearGradient
                id="paint0_linear_14_9931"
                x1="22.5"
                y1="0.5"
                x2="22.5"
                y2="45.5"
                gradientUnits="userSpaceOnUse"
              >
                <stop stop-opacity="0.1" />
                <stop offset="1" />
              </linearGradient>
            </defs>
          </svg>