<svg
          width="80"
          height="80"
          viewBox="0 0 80 80"
          fill="none"
          xmlns="http://www.w3.org/2000/svg"
        >
          <rect width="80" height="80" rx="40" fill="#9DF329" />
          <g clip-path="url(#clip0_14_35885)">
            <path
              d="M29.712 35.6846L26.2585 44.8964V44.8971C27.1036 48.2733 28.9612 51.2578 31.5907 53.5091L35.9238 51.8843C31.3213 47.762 29.0497 41.6987 29.712 35.6846ZM25.0893 48.0145L22.4422 55.0728C22.1258 55.9158 22.9505 56.7496 23.7998 56.4304L29.3844 54.3366C27.5375 52.5434 26.076 50.3921 25.0893 48.0145Z"
              fill="black"
            />
            <path
              d="M37.1157 34.8253L33.1791 30.8888C29.9874 38.0885 32.1694 46.3177 38.1914 51.0342L42.393 49.4586C38.7029 45.6479 36.7071 40.3289 37.1157 34.8253ZM39.175 36.8847C39.3367 41.3598 41.2856 45.5888 44.5831 48.6367H44.5838L47.6633 47.4822C48.3826 47.2123 48.5794 46.2891 48.0387 45.7484L39.175 36.8847ZM46.8778 40.1979C47.2897 40.6098 47.9574 40.6098 48.3693 40.1979C52.3369 36.2303 56.2003 37.457 56.2389 37.4698C56.7914 37.6539 57.3887 37.3553 57.5729 36.8028C57.7572 36.2504 57.4584 35.6529 56.9059 35.4687C56.6979 35.3995 51.7571 33.8272 46.8779 38.7065C46.466 39.1183 46.4659 39.7862 46.8778 40.1979ZM40.1663 31.9947C45.0457 27.116 43.4729 22.1748 43.404 21.9667C43.2198 21.414 42.6222 21.1159 42.0696 21.3001C41.5177 21.4844 41.2188 22.0813 41.4031 22.6339C41.4157 22.6726 42.6426 26.536 38.6744 30.5035C38.2651 30.9128 38.261 31.5801 38.6744 31.9947C39.0884 32.4087 39.7556 32.4055 40.1663 31.9947ZM42.4034 34.2322C41.9915 34.644 41.9915 35.3117 42.4034 35.7236C42.8115 36.1317 43.4745 36.1371 43.8886 35.7299C44.4334 35.4584 46.1245 36.4766 47.0643 35.5371C47.994 34.6074 47.0062 32.9507 47.2529 32.3701C47.8343 32.1228 49.4903 33.111 50.42 32.1814C51.3499 31.2516 50.3621 29.595 50.6088 29.0143C51.191 28.7669 52.8461 29.7553 53.7758 28.8256C54.7057 27.8958 53.7179 26.2392 53.9646 25.6585C54.5434 25.4123 56.2027 26.3985 57.1318 25.4697C58.0712 24.5302 57.0549 22.8361 57.3244 22.2941C57.73 21.8818 57.7278 21.2187 57.3181 20.8089C56.9063 20.397 56.2385 20.397 55.8266 20.8089C54.9954 21.6402 55.158 22.8137 55.3146 23.6527C54.4756 23.4961 53.3022 23.3335 52.4709 24.1646C51.6397 24.9959 51.8023 26.1694 51.9588 27.0084C51.1199 26.8519 49.9463 26.6891 49.1151 27.5205C48.2838 28.3517 48.4465 29.5252 48.6031 30.3642C47.764 30.2076 46.5905 30.0449 45.7594 30.8762C44.9281 31.7075 45.0907 32.881 45.2473 33.72C44.4082 33.5635 43.2346 33.4009 42.4034 34.2322ZM48.3693 25.2833C48.7811 24.8715 48.7811 24.2037 48.3693 23.7919C47.9574 23.38 47.2897 23.38 46.8778 23.7919C46.466 24.2037 46.466 24.8715 46.8778 25.2833C47.2897 25.6952 47.9574 25.6952 48.3693 25.2833Z"
              fill="black"
            />
            <path
              d="M55.0805 33.0497C55.663 33.0497 56.1351 32.5775 56.1351 31.9951C56.1351 31.4126 55.663 30.9404 55.0805 30.9404C54.4981 30.9404 54.0259 31.4126 54.0259 31.9951C54.0259 32.5775 54.4981 33.0497 55.0805 33.0497Z"
              fill="black"
            />
            <path
              d="M52.8434 41.6894C52.4315 42.1013 52.4315 42.769 52.8434 43.1809C53.2553 43.5927 53.923 43.5927 54.3348 43.1809C54.7467 42.769 54.7467 42.1013 54.3348 41.6894C53.923 41.2775 53.2553 41.2775 52.8434 41.6894ZM37.9288 26.7747C38.3406 26.3628 38.3406 25.6951 37.9288 25.2833C37.5169 24.8714 36.8492 24.8714 36.4373 25.2833C36.0255 25.6951 36.0255 26.3628 36.4373 26.7747C36.8492 27.1866 37.517 27.1866 37.9288 26.7747Z"
              fill="black"
            />
          </g>
          <defs>
            <clipPath id="clip0_14_35885">
              <rect
                width="36"
                height="36"
                fill="white"
                transform="translate(22 20.5)"
              />
            </clipPath>
          </defs>
        </svg>